<?xml version="1.0" encoding="UTF-8"?>
<!DOCTYPE svg PUBLIC "-//W3C//DTD SVG 1.1//EN" "http://www.w3.org/Graphics/SVG/1.1/DTD/svg11.dtd">
<svg xmlns="http://www.w3.org/2000/svg" version="1.1" width="695px" height="695px" style="shape-rendering:geometricPrecision; text-rendering:geometricPrecision; image-rendering:optimizeQuality; fill-rule:evenodd; clip-rule:evenodd" xmlns:xlink="http://www.w3.org/1999/xlink">
<g><path style="opacity:0.976" fill="#42b6b7" d="M 375.5,65.5 C 373.168,67.6605 370.668,69.6605 368,71.5C 363.539,72.2471 359.039,72.7471 354.5,73C 352.301,76.1929 349.801,79.0262 347,81.5C 345.605,81.2196 344.438,80.5529 343.5,79.5C 344.531,78.2997 345.365,76.9663 346,75.5C 348.429,74.9707 350.262,73.6374 351.5,71.5C 350.67,67.3803 350.004,63.047 349.5,58.5C 348.5,58.5 347.5,58.5 346.5,58.5C 346.707,53.7035 348.374,49.5368 351.5,46C 351.272,45.6012 350.938,45.4346 350.5,45.5C 353.007,42.4349 356.34,41.1016 360.5,41.5C 374.182,42.5128 380.015,49.8461 378,63.5C 377.583,64.756 376.75,65.4226 375.5,65.5 Z M 357.5,50.5 C 365.257,48.7647 368.757,51.7647 368,59.5C 364.348,65.6063 360.181,65.9396 355.5,60.5C 354.359,58.5787 354.192,56.5787 355,54.5C 356.095,53.3066 356.928,51.9733 357.5,50.5 Z"/></g>
<g><path style="opacity:0.974" fill="#86d0cf" d="M 350.5,45.5 C 350.938,45.4346 351.272,45.6012 351.5,46C 348.374,49.5368 346.707,53.7035 346.5,58.5C 347.5,58.5 348.5,58.5 349.5,58.5C 350.004,63.047 350.67,67.3803 351.5,71.5C 350.262,73.6374 348.429,74.9707 346,75.5C 345.365,76.9663 344.531,78.2997 343.5,79.5C 344.438,80.5529 345.605,81.2196 347,81.5C 349.801,79.0262 352.301,76.1929 354.5,73C 359.039,72.7471 363.539,72.2471 368,71.5C 370.668,69.6605 373.168,67.6605 375.5,65.5C 372.718,71.5144 367.885,74.5144 361,74.5C 359.236,74.4555 357.569,74.1222 356,73.5C 349.494,81.2152 343.994,89.5485 339.5,98.5C 341.228,93.3789 343.228,88.3789 345.5,83.5C 343.955,82.5481 342.288,82.2148 340.5,82.5C 340.392,84.7834 339.559,86.7834 338,88.5C 337.329,89.2524 336.496,89.5858 335.5,89.5C 335.351,88.448 335.517,87.448 336,86.5C 340.363,80.302 344.53,73.9687 348.5,67.5C 344.235,61.4486 343.735,55.1152 347,48.5C 348.039,47.2899 349.206,46.2899 350.5,45.5 Z"/></g>
<g><path style="opacity:0.966" fill="#7cc8c9" d="M 492.5,96.5 C 488.62,94.4851 484.453,93.1517 480,92.5C 477.578,92.7505 475.411,93.5838 473.5,95C 475.125,95.8525 475.458,96.8525 474.5,98C 482.86,96.2332 487.86,99.3998 489.5,107.5C 489.223,110.102 487.889,111.769 485.5,112.5C 488.681,102.685 485.348,99.0182 475.5,101.5C 473.114,104.277 472.448,107.277 473.5,110.5C 472.351,110.209 471.684,109.376 471.5,108C 472.249,105.455 472.749,102.955 473,100.5C 471.669,96.9782 469.836,96.6448 467.5,99.5C 466.386,104.446 466.219,109.446 467,114.5C 468.481,115.471 469.315,116.804 469.5,118.5C 465.277,116.249 463.277,112.582 463.5,107.5C 464.385,97.1969 470.052,91.5303 480.5,90.5C 485.682,90.4355 489.682,92.4355 492.5,96.5 Z"/></g>
<g><path style="opacity:0.227" fill="#a1d8d8" d="M 211.5,97.5 C 208.512,100.393 206.012,103.726 204,107.5C 202.35,120.02 207.85,126.687 220.5,127.5C 220.67,136.941 221.67,146.274 223.5,155.5C 222.379,153.046 221.546,150.379 221,147.5C 220.355,146.354 219.522,145.354 218.5,144.5C 218.833,143.833 219.167,143.167 219.5,142.5C 218.608,138.149 217.608,133.816 216.5,129.5C 203.176,125.995 198.676,117.662 203,104.5C 204.805,100.857 207.638,98.5237 211.5,97.5 Z"/></g>
<g><path style="opacity:0.004" fill="#fefffe" d="M 198.5,115.5 C 199.833,116.167 199.833,116.167 198.5,115.5 Z"/></g>
<g><path style="opacity:0.967" fill="#56bfbf" d="M 317.5,230.5 C 318.341,228.621 318.675,226.621 318.5,224.5C 319.188,227.02 320.188,229.52 321.5,232C 321.833,232.167 322.167,232.333 322.5,232.5C 322.833,230.667 323.167,228.833 323.5,227C 321.085,214.767 319.752,202.433 319.5,190C 319.505,184.124 320.171,178.624 321.5,173.5C 321.766,189.563 322.933,205.563 325,221.5C 328.147,233.422 330.98,245.422 333.5,257.5C 331.955,256.77 331.122,255.437 331,253.5C 329.938,251.792 328.771,251.126 327.5,251.5C 328.605,248.154 328.438,244.821 327,241.5C 326.683,243.301 326.016,243.634 325,242.5C 324.833,243.667 324.667,244.833 324.5,246C 325.579,250.203 326.412,254.37 327,258.5C 324.46,256.295 322.293,253.795 320.5,251C 318.236,250.764 316.069,250.264 314,249.5C 313.833,250 313.667,250.5 313.5,251C 315.729,252.42 317.396,254.253 318.5,256.5C 316.745,255.096 314.745,254.096 312.5,253.5C 296.629,240.036 280.962,227.202 265.5,215C 258.364,208.865 251.531,202.365 245,195.5C 239.672,188.485 234.672,181.151 230,173.5C 226.997,167.822 224.83,161.822 223.5,155.5C 221.67,146.274 220.67,136.941 220.5,127.5C 207.85,126.687 202.35,120.02 204,107.5C 206.012,103.726 208.512,100.393 211.5,97.5C 211.783,96.7109 212.283,96.0442 213,95.5C 218.299,95.9825 223.466,97.1492 228.5,99C 238.118,109.48 237.451,119.314 226.5,128.5C 226.98,130.949 227.98,133.115 229.5,135C 228.941,135.725 228.608,136.558 228.5,137.5C 232.395,159.384 241.895,178.384 257,194.5C 271.002,208.247 285.502,220.414 300.5,231C 307.653,236.488 314.486,242.321 321,248.5C 320.169,242.478 319.002,236.478 317.5,230.5 Z M 214.5,105.5 C 223.818,105.292 226.484,109.458 222.5,118C 213.682,120.852 210.182,117.685 212,108.5C 212.698,107.309 213.531,106.309 214.5,105.5 Z"/></g>
<g><path style="opacity:0.967" fill="#37b3b4" d="M 492.5,96.5 C 495.386,99.4827 496.72,103.149 496.5,107.5C 496.555,111.056 495.722,114.389 494,117.5C 493.184,118.823 492.017,119.489 490.5,119.5C 483.157,120.407 481.157,124.241 484.5,131C 484.429,138.425 483.262,145.592 481,152.5C 480.185,157.352 480.352,162.019 481.5,166.5C 481.167,167.167 480.833,167.833 480.5,168.5C 479.778,168.082 479.278,167.416 479,166.5C 478.972,173.223 476.305,178.556 471,182.5C 470.5,182.167 470,181.833 469.5,181.5C 471.685,172.761 474.185,164.095 477,155.5C 478.221,144.2 478.721,132.866 478.5,121.5C 475.183,121.336 472.183,120.336 469.5,118.5C 469.315,116.804 468.481,115.471 467,114.5C 466.219,109.446 466.386,104.446 467.5,99.5C 469.836,96.6448 471.669,96.9782 473,100.5C 472.749,102.955 472.249,105.455 471.5,108C 471.684,109.376 472.351,110.209 473.5,110.5C 477.065,113.539 481.065,114.205 485.5,112.5C 487.889,111.769 489.223,110.102 489.5,107.5C 487.86,99.3998 482.86,96.2332 474.5,98C 475.458,96.8525 475.125,95.8525 473.5,95C 475.411,93.5838 477.578,92.7505 480,92.5C 484.453,93.1517 488.62,94.4851 492.5,96.5 Z M 485.5,112.5 C 481.065,114.205 477.065,113.539 473.5,110.5C 472.448,107.277 473.114,104.277 475.5,101.5C 485.348,99.0182 488.681,102.685 485.5,112.5 Z"/></g>
<g><path style="opacity:0.973" fill="#33b5b6" d="M 339.5,98.5 C 337.921,104.261 335.588,109.595 332.5,114.5C 331.504,114.414 330.671,114.748 330,115.5C 327.661,124.503 325.327,133.503 323,142.5C 321.028,152.845 320.528,163.178 321.5,173.5C 320.171,178.624 319.505,184.124 319.5,190C 319.752,202.433 321.085,214.767 323.5,227C 323.167,228.833 322.833,230.667 322.5,232.5C 322.167,232.333 321.833,232.167 321.5,232C 320.188,229.52 319.188,227.02 318.5,224.5C 314.915,202.029 313.582,179.363 314.5,156.5C 317.605,142.482 321.105,128.482 325,114.5C 328.057,105.878 331.557,97.5447 335.5,89.5C 336.496,89.5858 337.329,89.2524 338,88.5C 339.559,86.7834 340.392,84.7834 340.5,82.5C 342.288,82.2148 343.955,82.5481 345.5,83.5C 343.228,88.3789 341.228,93.3789 339.5,98.5 Z"/></g>
<g><path style="opacity:0.004" fill="#00fffe" d="M 214.5,130.5 C 215.833,131.167 215.833,131.167 214.5,130.5 Z"/></g>
<g><path style="opacity:0.498" fill="#8dd4d4" d="M 332.5,114.5 C 330.309,123.97 327.809,133.303 325,142.5C 323.688,152.969 322.522,163.302 321.5,173.5C 320.528,163.178 321.028,152.845 323,142.5C 325.327,133.503 327.661,124.503 330,115.5C 330.671,114.748 331.504,114.414 332.5,114.5 Z"/></g>
<g><path style="opacity:0.251" fill="#9fdcdb" d="M 335.5,89.5 C 331.557,97.5447 328.057,105.878 325,114.5C 321.105,128.482 317.605,142.482 314.5,156.5C 315.357,142.047 318.191,128.047 323,114.5C 325.333,108.833 327.667,103.167 330,97.5C 331.104,94.2788 332.937,91.6122 335.5,89.5 Z"/></g>
<g><path style="opacity:0.906" fill="#86d2d2" d="M 490.5,119.5 C 489.251,121.136 487.584,122.303 485.5,123C 487.346,128.46 487.346,134.126 485.5,140C 485.648,141.707 485.982,143.374 486.5,145C 484.593,152.09 482.926,159.256 481.5,166.5C 480.352,162.019 480.185,157.352 481,152.5C 483.262,145.592 484.429,138.425 484.5,131C 481.157,124.241 483.157,120.407 490.5,119.5 Z"/></g>
<g><path style="opacity:0.969" fill="#2eb4b5" d="M 394.5,166.5 C 393.498,168.98 392.498,170.98 391.5,172.5C 386.161,168.669 380.994,168.669 376,172.5C 375.506,174.134 375.34,175.801 375.5,177.5C 374.387,178.946 374.22,180.613 375,182.5C 377.149,183.652 378.982,185.152 380.5,187C 385.3,186.812 389.967,186.146 394.5,185C 394.889,189.168 392.889,192.001 388.5,193.5C 390.351,198.697 390.851,204.03 390,209.5C 388.855,209.381 387.688,209.048 386.5,208.5C 385.833,208.167 385.167,207.833 384.5,207.5C 383.771,202.87 383.437,198.203 383.5,193.5C 379.305,193.319 375.805,191.653 373,188.5C 366.084,167.582 373.251,160.248 394.5,166.5 Z"/></g>
<g><path style="opacity:0.954" fill="#7bcdcd" d="M 394.5,166.5 C 373.251,160.248 366.084,167.582 373,188.5C 375.805,191.653 379.305,193.319 383.5,193.5C 383.437,198.203 383.771,202.87 384.5,207.5C 382.034,203.982 381.034,199.982 381.5,195.5C 376.06,194.269 371.227,190.935 367,185.5C 364.003,173.653 368.17,165.819 379.5,162C 384.482,161.04 389.149,161.873 393.5,164.5C 394.298,164.957 394.631,165.624 394.5,166.5 Z"/></g>
<g><path style="opacity:0.976" fill="#83d1d1" d="M 469.5,118.5 C 472.183,120.336 475.183,121.336 478.5,121.5C 478.721,132.866 478.221,144.2 477,155.5C 474.185,164.095 471.685,172.761 469.5,181.5C 470,181.833 470.5,182.167 471,182.5C 476.305,178.556 478.972,173.223 479,166.5C 479.278,167.416 479.778,168.082 480.5,168.5C 478.356,178.64 474.856,188.307 470,197.5C 469.292,198.381 468.458,199.047 467.5,199.5C 468.481,196.193 469.481,192.86 470.5,189.5C 470.224,187.67 469.557,186.003 468.5,184.5C 466.894,187.378 465.561,190.378 464.5,193.5C 462.101,195.74 460.268,198.407 459,201.5C 458.329,202.252 457.496,202.586 456.5,202.5C 470.19,177.985 477.19,151.318 477.5,122.5C 473.981,122.741 471.315,121.407 469.5,118.5 Z"/></g>
<g><path style="opacity:0.979" fill="#68c4c5" d="M 560.5,183.5 C 558.473,183.338 556.473,183.505 554.5,184C 555.672,184.419 556.672,185.085 557.5,186C 555.237,185.976 552.903,185.809 550.5,185.5C 548.288,185.412 546.288,185.912 544.5,187C 556.866,185.627 561.366,190.793 558,202.5C 554.962,204.693 551.796,205.027 548.5,203.5C 553.533,203.802 556.533,201.469 557.5,196.5C 556.977,191.64 554.31,189.307 549.5,189.5C 545.117,189.381 542.784,191.547 542.5,196C 542.954,197.939 543.621,199.772 544.5,201.5C 543.279,200.972 542.113,200.305 541,199.5C 540.193,195.814 540.693,192.314 542.5,189C 542.095,188.055 541.428,187.388 540.5,187C 542.595,186.444 542.762,185.944 541,185.5C 535.035,189.118 532.868,194.451 534.5,201.5C 531.495,188.53 536.662,181.197 550,179.5C 553.147,180.278 556.313,181.111 559.5,182C 560.056,182.383 560.389,182.883 560.5,183.5 Z"/></g>
<g><path style="opacity:0.357" fill="#ade5e3" d="M 314.5,156.5 C 313.582,179.363 314.915,202.029 318.5,224.5C 318.675,226.621 318.341,228.621 317.5,230.5C 316.5,224.88 315.166,219.213 313.5,213.5C 314.718,209.081 314.051,204.915 311.5,201C 314.489,198.388 314.155,196.388 310.5,195C 313.043,191.911 313.043,188.744 310.5,185.5C 311.765,175.699 313.099,166.032 314.5,156.5 Z"/></g>
<g><path style="opacity:0.975" fill="#34b2b3" d="M 159.5,187.5 C 165.204,192.464 167.038,198.798 165,206.5C 163.527,206.132 162.027,206.632 160.5,208C 162.26,208.965 162.594,210.132 161.5,211.5C 159.78,210.045 157.78,209.212 155.5,209C 160.48,206.149 161.813,201.982 159.5,196.5C 156.03,193.606 152.03,192.773 147.5,194C 143.006,197.192 141.506,201.358 143,206.5C 141.644,207.38 140.144,207.714 138.5,207.5C 137.124,199.654 139.124,192.988 144.5,187.5C 148.714,184.236 153.38,183.736 158.5,186C 159.056,186.383 159.389,186.883 159.5,187.5 Z"/></g>
<g><path style="opacity:0.988" fill="#2cb2b3" d="M 560.5,183.5 C 562.463,186.675 563.796,190.175 564.5,194C 563.669,197.828 562.836,201.661 562,205.5C 561,206.5 560,207.5 559,208.5C 552.656,208.198 546.156,207.698 539.5,207C 538.285,204.625 536.619,202.791 534.5,201.5C 532.868,194.451 535.035,189.118 541,185.5C 542.762,185.944 542.595,186.444 540.5,187C 541.428,187.388 542.095,188.055 542.5,189C 540.693,192.314 540.193,195.814 541,199.5C 542.113,200.305 543.279,200.972 544.5,201.5C 545.995,201.989 547.329,202.655 548.5,203.5C 551.796,205.027 554.962,204.693 558,202.5C 561.366,190.793 556.866,185.627 544.5,187C 546.288,185.912 548.288,185.412 550.5,185.5C 552.903,185.809 555.237,185.976 557.5,186C 556.672,185.085 555.672,184.419 554.5,184C 556.473,183.505 558.473,183.338 560.5,183.5 Z M 548.5,203.5 C 547.329,202.655 545.995,201.989 544.5,201.5C 543.621,199.772 542.954,197.939 542.5,196C 542.784,191.547 545.117,189.381 549.5,189.5C 554.31,189.307 556.977,191.64 557.5,196.5C 556.533,201.469 553.533,203.802 548.5,203.5 Z"/></g>
<g><path style="opacity:0.004" fill="#00fffe" d="M 374.5,195.5 C 374.897,194.475 375.563,194.308 376.5,195C 375.906,195.464 375.239,195.631 374.5,195.5 Z"/></g>
<g><path style="opacity:0.004" fill="#fefffe" d="M 567.5,200.5 C 568.833,201.167 568.833,201.167 567.5,200.5 Z"/></g>
<g><path style="opacity:0.984" fill="#31b7b8" d="M 467.5,199.5 C 467.672,200.492 467.338,201.158 466.5,201.5C 465.504,201.414 464.671,201.748 464,202.5C 461.499,207.506 458.499,212.173 455,216.5C 454.228,215.151 453.061,214.318 451.5,214C 452.885,210.001 454.551,206.168 456.5,202.5C 457.496,202.586 458.329,202.252 459,201.5C 460.268,198.407 462.101,195.74 464.5,193.5C 465.561,190.378 466.894,187.378 468.5,184.5C 469.557,186.003 470.224,187.67 470.5,189.5C 469.481,192.86 468.481,196.193 467.5,199.5 Z"/></g>
<g><path style="opacity:0.977" fill="#83cfce" d="M 560.5,183.5 C 561.496,183.414 562.329,183.748 563,184.5C 570.197,197.21 567.364,207.043 554.5,214C 555.097,215.062 555.43,216.228 555.5,217.5C 554.046,223.146 553.046,228.813 552.5,234.5C 552.831,226.472 552.498,218.472 551.5,210.5C 550.391,209.41 549.391,209.41 548.5,210.5C 547.618,224.361 545.451,238.028 542,251.5C 541.617,252.056 541.117,252.389 540.5,252.5C 543.754,239.356 545.254,226.022 545,212.5C 539.851,210.189 536.351,206.523 534.5,201.5C 536.619,202.791 538.285,204.625 539.5,207C 546.156,207.698 552.656,208.198 559,208.5C 560,207.5 561,206.5 562,205.5C 562.836,201.661 563.669,197.828 564.5,194C 563.796,190.175 562.463,186.675 560.5,183.5 Z"/></g>
<g><path style="opacity:0.971" fill="#6fc7c7" d="M 144.5,187.5 C 139.124,192.988 137.124,199.654 138.5,207.5C 140.144,207.714 141.644,207.38 143,206.5C 141.506,201.358 143.006,197.192 147.5,194C 152.03,192.773 156.03,193.606 159.5,196.5C 161.813,201.982 160.48,206.149 155.5,209C 157.78,209.212 159.78,210.045 161.5,211.5C 162.594,210.132 162.26,208.965 160.5,208C 162.027,206.632 163.527,206.132 165,206.5C 167.038,198.798 165.204,192.464 159.5,187.5C 164.119,188.686 166.952,191.686 168,196.5C 168.207,200.089 168.707,203.589 169.5,207C 167.361,210.473 164.527,213.306 161,215.5C 160.523,223.178 160.69,230.845 161.5,238.5C 159.92,236.283 158.92,233.616 158.5,230.5C 157.507,225.88 157.173,221.214 157.5,216.5C 155.833,216.5 154.167,216.5 152.5,216.5C 152.627,225.56 153.461,234.56 155,243.5C 157.622,250.982 159.789,258.649 161.5,266.5C 163.285,271.756 166.285,276.089 170.5,279.5C 167.973,280.443 167.806,282.443 170,285.5C 171.667,286.833 173.333,288.167 175,289.5C 175.388,286.151 175.221,282.817 174.5,279.5C 178.246,286.009 181.58,292.342 184.5,298.5C 188.523,304.565 192.523,310.565 196.5,316.5C 195.761,316.631 195.094,316.464 194.5,316C 191.174,311.674 187.507,307.674 183.5,304C 181.835,303.212 180.169,302.878 178.5,303C 181.08,306.158 183.413,309.492 185.5,313C 187.191,314.405 189.024,315.572 191,316.5C 191.333,316.167 191.667,315.833 192,315.5C 191.125,317.311 190.791,319.311 191,321.5C 192.016,322.634 192.683,322.301 193,320.5C 194.5,322 196,323.5 197.5,325C 196.424,326.726 196.257,328.559 197,330.5C 199.071,331.103 200.238,332.436 200.5,334.5C 198.771,333.883 197.271,332.883 196,331.5C 177.303,307.772 163.636,281.438 155,252.5C 152.68,241.271 151.18,229.938 150.5,218.5C 137.155,215.152 132.655,206.818 137,193.5C 138.48,190.183 140.98,188.183 144.5,187.5 Z M 148.5,194.5 C 157.123,193.778 160.123,197.445 157.5,205.5C 155.5,206.833 153.5,208.167 151.5,209.5C 143.644,205.756 142.644,200.756 148.5,194.5 Z"/></g>
<g><path style="opacity:0.98" fill="#5ec3c3" d="M 394.5,166.5 C 398.959,169.179 400.959,173.179 400.5,178.5C 400.329,185.67 396.995,190.836 390.5,194C 394.047,209.829 396.38,225.829 397.5,242C 398.059,249.151 397.393,256.318 395.5,263.5C 396.161,251.338 395.161,239.338 392.5,227.5C 392.167,227.833 391.833,228.167 391.5,228.5C 390.687,240.454 390.187,252.454 390,264.5C 389.902,267.522 389.068,270.189 387.5,272.5C 390.109,251.152 389.776,229.819 386.5,208.5C 387.688,209.048 388.855,209.381 390,209.5C 390.851,204.03 390.351,198.697 388.5,193.5C 392.889,192.001 394.889,189.168 394.5,185C 389.967,186.146 385.3,186.812 380.5,187C 378.982,185.152 377.149,183.652 375,182.5C 374.22,180.613 374.387,178.946 375.5,177.5C 375.34,175.801 375.506,174.134 376,172.5C 380.994,168.669 386.161,168.669 391.5,172.5C 392.498,170.98 393.498,168.98 394.5,166.5 Z M 375.5,177.5 C 380.466,168.257 385.466,168.423 390.5,178C 390.046,180.036 389.213,181.87 388,183.5C 386.989,182.663 385.822,182.33 384.5,182.5C 384.5,183.5 384.5,184.5 384.5,185.5C 380.825,185.246 377.991,183.58 376,180.5C 375.517,179.552 375.351,178.552 375.5,177.5 Z"/></g>
<g><path style="opacity:0.004" fill="#00fffe" d="M 542.5,214.5 C 542.897,213.475 543.563,213.308 544.5,214C 543.906,214.464 543.239,214.631 542.5,214.5 Z"/></g>
<g><path style="opacity:0.992" fill="#88d2d3" d="M 466.5,201.5 C 463.985,207.19 460.819,212.524 457,217.5C 454.23,219.601 452.23,222.268 451,225.5C 449.729,226.883 448.229,227.883 446.5,228.5C 447.563,225.28 449.23,222.446 451.5,220C 451.079,217.815 450.579,215.649 450,213.5C 445.274,219.66 440.107,225.327 434.5,230.5C 442.199,221.466 449.532,212.133 456.5,202.5C 454.551,206.168 452.885,210.001 451.5,214C 453.061,214.318 454.228,215.151 455,216.5C 458.499,212.173 461.499,207.506 464,202.5C 464.671,201.748 465.504,201.414 466.5,201.5 Z"/></g>
<g><path style="opacity:0.22" fill="#ace2e2" d="M 384.5,207.5 C 385.167,207.833 385.833,208.167 386.5,208.5C 389.776,229.819 390.109,251.152 387.5,272.5C 387.02,275.078 386.02,277.412 384.5,279.5C 387.946,256.106 387.946,232.106 384.5,207.5 Z"/></g>
<g><path style="opacity:0.059" fill="#9dd8d8" d="M 312.5,253.5 C 314.745,254.096 316.745,255.096 318.5,256.5C 323.902,263.075 328.735,270.075 333,277.5C 333.717,282.007 335.383,286.007 338,289.5C 338.296,292.706 338.796,295.872 339.5,299C 339.164,300.03 338.497,300.53 337.5,300.5C 334.313,282.026 325.979,266.359 312.5,253.5 Z"/></g>
<g><path style="opacity:0.973" fill="#43babb" d="M 161.5,238.5 C 164.233,247.231 166.733,256.231 169,265.5C 171.52,269.892 173.353,274.559 174.5,279.5C 175.221,282.817 175.388,286.151 175,289.5C 173.333,288.167 171.667,286.833 170,285.5C 167.806,282.443 167.973,280.443 170.5,279.5C 166.285,276.089 163.285,271.756 161.5,266.5C 159.789,258.649 157.622,250.982 155,243.5C 153.461,234.56 152.627,225.56 152.5,216.5C 154.167,216.5 155.833,216.5 157.5,216.5C 157.173,221.214 157.507,225.88 158.5,230.5C 158.92,233.616 159.92,236.283 161.5,238.5 Z"/></g>
<g><path style="opacity:0.2" fill="#a5dfdf" d="M 539.5,253.5 C 540.124,253.917 540.457,254.584 540.5,255.5C 539.232,259.47 538.065,263.47 537,267.5C 531.382,276.414 526.049,285.414 521,294.5C 518.293,297.045 515.46,299.379 512.5,301.5C 520.641,291.24 527.808,280.24 534,268.5C 535.815,263.528 537.648,258.528 539.5,253.5 Z"/></g>
<g><path style="opacity:0.981" fill="#35b7b7" d="M 395.5,263.5 C 395.772,265.314 395.939,267.314 396,269.5C 397.113,268.695 398.279,268.028 399.5,267.5C 401.392,266.298 403.226,264.965 405,263.5C 406.301,265.402 406.968,267.402 407,269.5C 402.926,272.818 399.426,276.652 396.5,281C 395.552,281.483 394.552,281.649 393.5,281.5C 393.657,282.873 393.49,284.207 393,285.5C 389.721,291.11 386.054,296.444 382,301.5C 379.546,299.987 377.879,300.654 377,303.5C 376.505,300.469 376.671,297.469 377.5,294.5C 379.445,290.173 381.111,285.673 382.5,281C 382.836,279.97 383.503,279.47 384.5,279.5C 386.02,277.412 387.02,275.078 387.5,272.5C 389.068,270.189 389.902,267.522 390,264.5C 390.187,252.454 390.687,240.454 391.5,228.5C 391.833,228.167 392.167,227.833 392.5,227.5C 395.161,239.338 396.161,251.338 395.5,263.5 Z"/></g>
<g><path style="opacity:0.984" fill="#61c4c4" d="M 446.5,228.5 C 432.59,243.918 418.423,259.251 404,274.5C 385.338,296.643 371.172,321.476 361.5,349C 359.254,359.928 357.254,370.761 355.5,381.5C 354.844,380.378 354.511,379.045 354.5,377.5C 355.821,365.032 357.488,352.865 359.5,341C 359.333,340.5 359.167,340 359,339.5C 356.444,342.06 354.61,345.06 353.5,348.5C 352.076,339.893 351.409,331.226 351.5,322.5C 352.813,326.944 353.646,331.611 354,336.5C 354.317,338.301 354.984,338.634 356,337.5C 361.073,322.02 368.24,307.686 377.5,294.5C 376.671,297.469 376.505,300.469 377,303.5C 377.879,300.654 379.546,299.987 382,301.5C 386.054,296.444 389.721,291.11 393,285.5C 393.49,284.207 393.657,282.873 393.5,281.5C 394.552,281.649 395.552,281.483 396.5,281C 399.426,276.652 402.926,272.818 407,269.5C 406.968,267.402 406.301,265.402 405,263.5C 403.226,264.965 401.392,266.298 399.5,267.5C 399.574,264.096 401.574,261.596 405.5,260C 408.333,256.5 411.167,253 414,249.5C 420.423,242.572 427.256,236.238 434.5,230.5C 440.107,225.327 445.274,219.66 450,213.5C 450.579,215.649 451.079,217.815 451.5,220C 449.23,222.446 447.563,225.28 446.5,228.5 Z"/></g>
<g><path style="opacity:0.975" fill="#49bbbb" d="M 552.5,234.5 C 551.532,249.4 547.532,263.4 540.5,276.5C 529.953,295.551 516.286,312.051 499.5,326C 489.44,333.391 479.107,340.391 468.5,347C 477.752,346.085 487.085,345.585 496.5,345.5C 516.306,347.545 535.973,346.711 555.5,343C 572.95,338.35 586.95,328.85 597.5,314.5C 591.783,304.395 594.116,296.562 604.5,291C 618.23,287.362 626.23,292.529 628.5,306.5C 625.712,319.325 618.045,324.325 605.5,321.5C 598.951,328.882 591.617,335.382 583.5,341C 582.552,341.483 581.552,341.649 580.5,341.5C 573.696,343.711 567.029,346.211 560.5,349C 547.805,351.628 534.972,353.128 522,353.5C 505.508,352.472 489.008,352.305 472.5,353C 465.911,354.807 459.244,356.307 452.5,357.5C 451.287,357.747 450.62,358.414 450.5,359.5C 436.136,365.023 423.136,372.856 411.5,383C 396.791,396.535 384.124,411.702 373.5,428.5C 371.299,428.858 369.965,430.192 369.5,432.5C 368.311,433.429 366.978,433.762 365.5,433.5C 365.391,439.936 363.724,445.936 360.5,451.5C 359.5,452.167 358.5,452.833 357.5,453.5C 357.167,453.167 356.833,452.833 356.5,452.5C 357.736,450.689 357.736,448.856 356.5,447C 359.096,440.205 362.263,433.705 366,427.5C 366.49,426.207 366.657,424.873 366.5,423.5C 381.168,398.998 400.168,378.498 423.5,362C 449.489,348.678 474.156,333.345 497.5,316C 502.03,311.557 506.363,306.89 510.5,302C 511.094,301.536 511.761,301.369 512.5,301.5C 515.46,299.379 518.293,297.045 521,294.5C 526.049,285.414 531.382,276.414 537,267.5C 538.065,263.47 539.232,259.47 540.5,255.5C 540.457,254.584 540.124,253.917 539.5,253.5C 539.5,252.833 539.833,252.5 540.5,252.5C 541.117,252.389 541.617,252.056 542,251.5C 545.451,238.028 547.618,224.361 548.5,210.5C 549.391,209.41 550.391,209.41 551.5,210.5C 552.498,218.472 552.831,226.472 552.5,234.5 Z M 607.5,299.5 C 610.685,299.02 613.519,299.686 616,301.5C 616.454,303.536 617.287,305.37 618.5,307C 615.591,312.747 611.424,313.914 606,310.5C 603.842,306.461 604.342,302.794 607.5,299.5 Z"/></g>
<g><path style="opacity:0.004" fill="#fefffe" d="M 262.5,328.5 C 263.833,329.167 263.833,329.167 262.5,328.5 Z"/></g>
<g><path style="opacity:0.153" fill="#a5dfde" d="M 338.5,301.5 C 340.093,302.348 341.26,303.681 342,305.5C 343.937,311.014 345.27,316.68 346,322.5C 346.782,337.004 347.616,351.504 348.5,366C 348.49,370.229 347.823,374.062 346.5,377.5C 346.973,351.552 344.307,326.219 338.5,301.5 Z"/></g>
<g><path style="opacity:0.004" fill="#00fffe" d="M 86.5,352.5 C 88.337,352.639 88.6704,353.306 87.5,354.5C 86.7025,354.043 86.3691,353.376 86.5,352.5 Z"/></g>
<g><path style="opacity:0.522" fill="#7acccb" d="M 580.5,341.5 C 579.402,342.397 579.402,343.23 580.5,344C 572.511,346.663 564.511,349.33 556.5,352C 555.354,352.645 554.354,353.478 553.5,354.5C 552.808,353.975 552.308,353.308 552,352.5C 548.284,353.704 544.45,354.538 540.5,355C 541.706,356.018 541.373,356.518 539.5,356.5C 527.95,355.864 516.45,355.198 505,354.5C 503.915,355.293 502.748,355.96 501.5,356.5C 500.304,356.154 500.304,355.654 501.5,355C 484.281,354.129 467.281,355.629 450.5,359.5C 450.62,358.414 451.287,357.747 452.5,357.5C 459.244,356.307 465.911,354.807 472.5,353C 489.008,352.305 505.508,352.472 522,353.5C 534.972,353.128 547.805,351.628 560.5,349C 567.029,346.211 573.696,343.711 580.5,341.5 Z"/></g>
<g><path style="opacity:0.976" fill="#4ebdbd" d="M 294.5,409.5 C 290.744,407.949 287.744,405.449 285.5,402C 282.333,401.167 281.167,402.333 282,405.5C 283.685,407.017 285.185,408.684 286.5,410.5C 283.654,412.468 280.654,412.968 277.5,412C 278.67,413.755 280.337,414.755 282.5,415C 281.584,415.278 280.918,415.778 280.5,416.5C 277.071,414.552 273.405,413.052 269.5,412C 267.765,411.349 266.098,411.515 264.5,412.5C 263.304,412.154 263.304,411.654 264.5,411C 261.947,410.239 259.447,409.406 257,408.5C 256.667,408.833 256.333,409.167 256,409.5C 253.527,406.633 250.527,405.966 247,407.5C 245.238,407.056 245.405,406.556 247.5,406C 233.834,403.585 220.167,401.418 206.5,399.5C 196.406,397.351 186.073,395.851 175.5,395C 160.539,391.197 145.539,387.364 130.5,383.5C 111.267,375.605 95.9339,362.938 84.5,345.5C 82.5147,341.018 80.1814,336.852 77.5,333C 77.9574,332.586 78.2907,332.086 78.5,331.5C 77.846,329.885 77.346,328.218 77,326.5C 62.7867,323.632 57.7867,315.298 62,301.5C 70.361,290.828 79.6944,289.828 90,298.5C 93.7253,303.858 94.7253,309.525 93,315.5C 90.8333,318.5 88.6667,321.5 86.5,324.5C 89.7644,334.92 94.9311,344.253 102,352.5C 112.762,364.455 125.595,373.288 140.5,379C 166.941,386.184 193.941,390.517 221.5,392C 232.773,394.183 244.106,396.183 255.5,398C 263.014,401.174 270.681,403.507 278.5,405C 266.841,393.531 254.174,383.531 240.5,375C 239.21,372.708 237.543,370.708 235.5,369C 231.377,365.464 227.044,362.13 222.5,359C 216,351.833 209.167,345 202,338.5C 201.209,337.255 200.709,335.922 200.5,334.5C 200.238,332.436 199.071,331.103 197,330.5C 196.257,328.559 196.424,326.726 197.5,325C 196,323.5 194.5,322 193,320.5C 192.683,322.301 192.016,322.634 191,321.5C 190.791,319.311 191.125,317.311 192,315.5C 191.667,315.833 191.333,316.167 191,316.5C 189.024,315.572 187.191,314.405 185.5,313C 183.413,309.492 181.08,306.158 178.5,303C 180.169,302.878 181.835,303.212 183.5,304C 187.507,307.674 191.174,311.674 194.5,316C 195.094,316.464 195.761,316.631 196.5,316.5C 214.481,338.81 235.147,358.476 258.5,375.5C 258.435,375.938 258.601,376.272 259,376.5C 259.051,372.843 258.718,369.177 258,365.5C 255.66,360.479 254.326,355.146 254,349.5C 253.435,339.127 253.435,328.793 254,318.5C 253.329,317.748 252.496,317.414 251.5,317.5C 250.508,317.672 249.842,317.338 249.5,316.5C 248.555,315.007 247.555,313.507 246.5,312C 247.319,310.681 248.319,309.515 249.5,308.5C 252.91,310.479 256.577,310.979 260.5,310C 261.056,309.617 261.389,309.117 261.5,308.5C 262.749,306.33 263.749,303.996 264.5,301.5C 264.154,300.151 263.821,298.817 263.5,297.5C 262.972,296.279 262.305,295.113 261.5,294C 250.182,291.65 246.182,295.984 249.5,307C 247.256,309.349 246.089,308.849 246,305.5C 245,306.833 244,306.833 243,305.5C 242.393,301.463 242.56,297.463 243.5,293.5C 243.859,291.629 244.859,290.129 246.5,289C 257.467,282.675 266.3,284.842 273,295.5C 276.03,306.11 272.53,313.776 262.5,318.5C 256.546,347.713 263.546,373.713 283.5,396.5C 285.359,398.192 287.359,399.692 289.5,401C 289.167,401.333 288.833,401.667 288.5,402C 290.683,404.35 292.683,406.85 294.5,409.5 Z M 74.5,302.5 C 83.8853,303.536 85.8853,308.036 80.5,316C 75.0487,316.56 71.3821,314.227 69.5,309C 70.6906,306.422 72.3572,304.255 74.5,302.5 Z M 263.5,297.5 C 263.821,298.817 264.154,300.151 264.5,301.5C 263.749,303.996 262.749,306.33 261.5,308.5C 252.756,310.926 249.256,307.593 251,298.5C 254.861,294.831 259.027,294.498 263.5,297.5 Z"/></g>
<g><path style="opacity:0.278" fill="#a9e1e1" d="M 251.5,317.5 C 252.496,317.414 253.329,317.748 254,318.5C 253.435,328.793 253.435,339.127 254,349.5C 254.326,355.146 255.66,360.479 258,365.5C 258.718,369.177 259.051,372.843 259,376.5C 258.601,376.272 258.435,375.938 258.5,375.5C 258.243,371.261 256.577,367.761 253.5,365C 254.022,364.439 254.355,363.772 254.5,363C 253.218,358.248 252.385,353.415 252,348.5C 251.67,338.068 251.503,327.734 251.5,317.5 Z"/></g>
<g><path style="opacity:0.977" fill="#84d1d2" d="M 243.5,293.5 C 242.56,297.463 242.393,301.463 243,305.5C 244,306.833 245,306.833 246,305.5C 246.089,308.849 247.256,309.349 249.5,307C 246.182,295.984 250.182,291.65 261.5,294C 262.305,295.113 262.972,296.279 263.5,297.5C 259.027,294.498 254.861,294.831 251,298.5C 249.256,307.593 252.756,310.926 261.5,308.5C 261.389,309.117 261.056,309.617 260.5,310C 256.577,310.979 252.91,310.479 249.5,308.5C 248.319,309.515 247.319,310.681 246.5,312C 247.555,313.507 248.555,315.007 249.5,316.5C 241.475,312.111 238.642,305.444 241,296.5C 241.852,295.429 242.685,294.429 243.5,293.5 Z"/></g>
<g><path style="opacity:0.531" fill="#8ad2d2" d="M 130.5,383.5 C 145.539,387.364 160.539,391.197 175.5,395C 186.073,395.851 196.406,397.351 206.5,399.5C 184.024,398.308 161.691,394.475 139.5,388C 136.177,386.96 133.177,385.46 130.5,383.5 Z"/></g>
<g><path style="opacity:0.29" fill="#abe2e1" d="M 345.5,380.5 C 346.794,382.048 347.461,384.048 347.5,386.5C 346.374,401.483 345.54,416.483 345,431.5C 344.809,433.708 344.309,435.708 343.5,437.5C 343.643,426.563 343.643,415.73 343.5,405C 344.167,401.333 344.833,397.667 345.5,394C 345.381,389.712 345.381,385.212 345.5,380.5 Z"/></g>
<g><path style="opacity:0.976" fill="#81cece" d="M 553.5,426.5 C 553.665,422.818 553.499,419.152 553,415.5C 551.887,414.289 550.72,414.289 549.5,415.5C 548.435,424.933 543.435,428.933 534.5,427.5C 533.174,426.358 532.174,425.024 531.5,423.5C 533.196,423.685 534.529,424.519 535.5,426C 545.031,426.967 547.698,423.133 543.5,414.5C 538.773,411.682 534.94,412.682 532,417.5C 531.506,419.134 531.34,420.801 531.5,422.5C 529.826,418.291 530.826,414.624 534.5,411.5C 539.448,409.631 543.615,410.631 547,414.5C 547.75,413.874 548.584,413.374 549.5,413C 549.201,411.68 549.034,410.18 549,408.5C 541.182,404.145 533.849,404.811 527,410.5C 524.151,414.519 523.318,418.852 524.5,423.5C 524.253,424.713 523.586,425.38 522.5,425.5C 520.183,412.137 525.85,404.804 539.5,403.5C 549.179,404.676 554.845,410.176 556.5,420C 556.294,422.73 555.294,424.897 553.5,426.5 Z M 531.5,423.5 C 531.5,423.167 531.5,422.833 531.5,422.5C 531.34,420.801 531.506,419.134 532,417.5C 534.94,412.682 538.773,411.682 543.5,414.5C 547.698,423.133 545.031,426.967 535.5,426C 534.529,424.519 533.196,423.685 531.5,423.5 Z"/></g>
<g><path style="opacity:0.989" fill="#31b6b7" d="M 294.5,409.5 C 298.166,413.171 301.499,417.171 304.5,421.5C 305.697,425.031 307.697,428.031 310.5,430.5C 308.902,430.61 307.235,430.943 305.5,431.5C 299.852,427.515 294.519,423.182 289.5,418.5C 286.801,416.801 284.134,416.468 281.5,417.5C 280.833,417.5 280.5,417.167 280.5,416.5C 280.918,415.778 281.584,415.278 282.5,415C 280.337,414.755 278.67,413.755 277.5,412C 280.654,412.968 283.654,412.468 286.5,410.5C 285.185,408.684 283.685,407.017 282,405.5C 281.167,402.333 282.333,401.167 285.5,402C 287.744,405.449 290.744,407.949 294.5,409.5 Z"/></g>
<g><path style="opacity:0.975" fill="#45b9b9" d="M 531.5,422.5 C 531.5,422.833 531.5,423.167 531.5,423.5C 532.174,425.024 533.174,426.358 534.5,427.5C 543.435,428.933 548.435,424.933 549.5,415.5C 550.72,414.289 551.887,414.289 553,415.5C 553.499,419.152 553.665,422.818 553.5,426.5C 552.115,431.056 549.115,434.222 544.5,436C 541.453,437.244 538.453,437.744 535.5,437.5C 534.252,436.96 533.085,436.293 532,435.5C 522.339,450.599 508.839,460.766 491.5,466C 488.568,466.953 485.568,467.453 482.5,467.5C 468.651,467.731 454.817,467.398 441,466.5C 431.292,466.743 421.792,468.077 412.5,470.5C 409.62,471.607 406.954,471.107 404.5,469C 410.926,464.973 417.926,462.306 425.5,461C 437.853,460.226 450.186,460.393 462.5,461.5C 464.355,461.66 465.688,460.993 466.5,459.5C 480.024,460.365 492.524,457.365 504,450.5C 509.97,446.862 515.304,442.528 520,437.5C 521.517,434.657 523.017,431.823 524.5,429C 524.022,427.697 523.355,426.531 522.5,425.5C 523.586,425.38 524.253,424.713 524.5,423.5C 523.318,418.852 524.151,414.519 527,410.5C 533.849,404.811 541.182,404.145 549,408.5C 549.034,410.18 549.201,411.68 549.5,413C 548.584,413.374 547.75,413.874 547,414.5C 543.615,410.631 539.448,409.631 534.5,411.5C 530.826,414.624 529.826,418.291 531.5,422.5 Z M 531.5,423.5 C 531.5,423.167 531.5,422.833 531.5,422.5C 531.34,420.801 531.506,419.134 532,417.5C 534.94,412.682 538.773,411.682 543.5,414.5C 547.698,423.133 545.031,426.967 535.5,426C 534.529,424.519 533.196,423.685 531.5,423.5 Z"/></g>
<g><path style="opacity:0.976" fill="#70cac9" d="M 281.5,417.5 C 284.134,416.468 286.801,416.801 289.5,418.5C 294.519,423.182 299.852,427.515 305.5,431.5C 307.235,430.943 308.902,430.61 310.5,430.5C 307.697,428.031 305.697,425.031 304.5,421.5C 308.438,424.935 312.271,428.602 316,432.5C 319.995,437.67 323.828,443.004 327.5,448.5C 331.743,455.896 335.409,463.563 338.5,471.5C 337.624,471.631 336.957,471.298 336.5,470.5C 334.106,463.29 330.773,456.623 326.5,450.5C 324.678,450.537 322.678,450.204 320.5,449.5C 321.492,452.823 322.492,456.156 323.5,459.5C 314.667,444.663 303.334,431.996 289.5,421.5C 287.05,419.713 284.384,418.38 281.5,417.5 Z"/></g>
<g><path style="opacity:0.974" fill="#42b8b8" d="M 333.5,257.5 C 334.117,257.611 334.617,257.944 335,258.5C 337.741,269.056 341.074,279.389 345,289.5C 346.054,296.384 347.721,303.051 350,309.5C 350.923,313.79 351.423,318.123 351.5,322.5C 351.409,331.226 352.076,339.893 353.5,348.5C 354.61,345.06 356.444,342.06 359,339.5C 359.167,340 359.333,340.5 359.5,341C 357.488,352.865 355.821,365.032 354.5,377.5C 354.511,379.045 354.844,380.378 355.5,381.5C 354.415,391.59 353.415,401.59 352.5,411.5C 351.178,414.768 350.511,418.435 350.5,422.5C 350.006,436.011 349.34,449.511 348.5,463C 348.833,464.5 349.167,466 349.5,467.5C 350.877,462.321 352.71,457.321 355,452.5C 355.306,454.906 356.139,457.073 357.5,459C 356.833,461.667 356.167,464.333 355.5,467C 355.836,468.03 356.503,468.53 357.5,468.5C 357.5,469.167 357.167,469.5 356.5,469.5C 355.624,469.369 354.957,469.702 354.5,470.5C 353.423,472.912 352.256,475.246 351,477.5C 349.579,496.175 349.079,514.842 349.5,533.5C 350.386,532.675 350.719,531.675 350.5,530.5C 352.144,530.286 353.644,530.62 355,531.5C 355.495,533.473 355.662,535.473 355.5,537.5C 349.196,536.74 342.863,536.407 336.5,536.5C 327.569,508.74 309.569,490.24 282.5,481C 277.423,479.32 272.423,477.82 267.5,476.5C 266.048,475.698 264.382,475.198 262.5,475C 256.5,474.833 250.5,474.667 244.5,474.5C 226.161,475.695 207.828,475.695 189.5,474.5C 182.616,473.812 176.116,471.812 170,468.5C 167.317,470.85 164.984,473.517 163,476.5C 158.308,476.499 153.475,476.332 148.5,476C 147.234,475.691 146.067,475.191 145,474.5C 143.692,475.151 142.859,474.485 142.5,472.5C 143.043,472.44 143.376,472.107 143.5,471.5C 139.708,466.087 138.541,460.087 140,453.5C 141.722,450.637 143.555,447.97 145.5,445.5C 151.632,443.022 157.966,442.855 164.5,445C 168.557,449.461 171.557,454.461 173.5,460C 179.526,462.052 185.526,464.052 191.5,466C 199.812,466.858 208.145,467.358 216.5,467.5C 237.275,465.542 257.941,466.209 278.5,469.5C 304.057,477.259 324.057,492.259 338.5,514.5C 339.694,512.484 339.694,510.484 338.5,508.5C 339.947,507.866 340.613,506.699 340.5,505C 339.142,494.067 336.309,483.567 332,473.5C 331.502,471.456 330.335,470.122 328.5,469.5C 326.341,466.516 324.675,463.183 323.5,459.5C 322.492,456.156 321.492,452.823 320.5,449.5C 322.678,450.204 324.678,450.537 326.5,450.5C 330.773,456.623 334.106,463.29 336.5,470.5C 336.957,471.298 337.624,471.631 338.5,471.5C 339.045,478.535 340.878,485.202 344,491.5C 344.778,473.809 344.612,456.142 343.5,438.5C 343.5,438.167 343.5,437.833 343.5,437.5C 344.309,435.708 344.809,433.708 345,431.5C 345.54,416.483 346.374,401.483 347.5,386.5C 347.461,384.048 346.794,382.048 345.5,380.5C 345.263,379.209 345.596,378.209 346.5,377.5C 347.823,374.062 348.49,370.229 348.5,366C 347.616,351.504 346.782,337.004 346,322.5C 345.27,316.68 343.937,311.014 342,305.5C 341.26,303.681 340.093,302.348 338.5,301.5C 337.833,301.5 337.5,301.167 337.5,300.5C 338.497,300.53 339.164,300.03 339.5,299C 338.796,295.872 338.296,292.706 338,289.5C 335.383,286.007 333.717,282.007 333,277.5C 328.735,270.075 323.902,263.075 318.5,256.5C 317.396,254.253 315.729,252.42 313.5,251C 313.667,250.5 313.833,250 314,249.5C 316.069,250.264 318.236,250.764 320.5,251C 322.293,253.795 324.46,256.295 327,258.5C 326.412,254.37 325.579,250.203 324.5,246C 324.667,244.833 324.833,243.667 325,242.5C 326.016,243.634 326.683,243.301 327,241.5C 328.438,244.821 328.605,248.154 327.5,251.5C 328.771,251.126 329.938,251.792 331,253.5C 331.122,255.437 331.955,256.77 333.5,257.5 Z M 152.5,451.5 C 160.668,452.499 163.168,456.832 160,464.5C 156.385,468.317 152.552,468.483 148.5,465C 145.694,459.254 147.027,454.754 152.5,451.5 Z"/></g>
<g><path style="opacity:0.973" fill="#75cdcc" d="M 352.5,411.5 C 352.151,424.507 351.984,437.507 352,450.5C 356.328,441.174 361.161,432.174 366.5,423.5C 366.657,424.873 366.49,426.207 366,427.5C 362.263,433.705 359.096,440.205 356.5,447C 357.736,448.856 357.736,450.689 356.5,452.5C 356.833,452.833 357.167,453.167 357.5,453.5C 358.5,452.833 359.5,452.167 360.5,451.5C 363.724,445.936 365.391,439.936 365.5,433.5C 366.978,433.762 368.311,433.429 369.5,432.5C 369.965,430.192 371.299,428.858 373.5,428.5C 369.056,436.978 364.89,445.645 361,454.5C 359.52,459.102 358.354,463.769 357.5,468.5C 356.503,468.53 355.836,468.03 355.5,467C 356.167,464.333 356.833,461.667 357.5,459C 356.139,457.073 355.306,454.906 355,452.5C 352.71,457.321 350.877,462.321 349.5,467.5C 349.167,466 348.833,464.5 348.5,463C 349.34,449.511 350.006,436.011 350.5,422.5C 350.511,418.435 351.178,414.768 352.5,411.5 Z"/></g>
<g><path style="opacity:0.286" fill="#9fdad9" d="M 145.5,445.5 C 143.555,447.97 141.722,450.637 140,453.5C 138.541,460.087 139.708,466.087 143.5,471.5C 143.376,472.107 143.043,472.44 142.5,472.5C 140.863,470.684 139.363,468.684 138,466.5C 136.779,460.164 137.613,454.164 140.5,448.5C 141.94,447.048 143.606,446.048 145.5,445.5 Z"/></g>
<g><path style="opacity:0.314" fill="#abdfde" d="M 482.5,467.5 C 476.868,468.649 471.035,469.315 465,469.5C 452.176,468.495 439.343,468.328 426.5,469C 421.613,469.641 416.947,470.808 412.5,472.5C 412.5,471.833 412.5,471.167 412.5,470.5C 421.792,468.077 431.292,466.743 441,466.5C 454.817,467.398 468.651,467.731 482.5,467.5 Z"/></g>
<g><path style="opacity:0.067" fill="#a5dcdc" d="M 189.5,474.5 C 207.828,475.695 226.161,475.695 244.5,474.5C 250.5,474.667 256.5,474.833 262.5,475C 264.382,475.198 266.048,475.698 267.5,476.5C 264.421,476.26 261.421,476.593 258.5,477.5C 257.692,477.192 257.025,476.692 256.5,476C 253.5,475.833 250.5,475.667 247.5,475.5C 230.841,476.52 214.175,476.687 197.5,476C 194.635,475.817 191.969,475.317 189.5,474.5 Z"/></g>
<g><path style="opacity:0.004" fill="#00fffe" d="M 193.5,477.5 C 193.897,476.475 194.563,476.308 195.5,477C 194.906,477.464 194.239,477.631 193.5,477.5 Z"/></g>
<g><path style="opacity:0.328" fill="#99dad9" d="M 343.5,438.5 C 344.612,456.142 344.778,473.809 344,491.5C 340.878,485.202 339.045,478.535 338.5,471.5C 339.482,473.406 340.482,475.406 341.5,477.5C 342.167,464.34 342.833,451.34 343.5,438.5 Z"/></g>
<g><path style="opacity:0.977" fill="#5fc1c0" d="M 466.5,459.5 C 465.688,460.993 464.355,461.66 462.5,461.5C 450.186,460.393 437.853,460.226 425.5,461C 417.926,462.306 410.926,464.973 404.5,469C 406.954,471.107 409.62,471.607 412.5,470.5C 412.5,471.167 412.5,471.833 412.5,472.5C 408.521,474.154 404.521,475.821 400.5,477.5C 378.54,491.829 364.207,511.829 357.5,537.5C 356.833,537.5 356.167,537.5 355.5,537.5C 355.662,535.473 355.495,533.473 355,531.5C 353.644,530.62 352.144,530.286 350.5,530.5C 350.719,531.675 350.386,532.675 349.5,533.5C 349.079,514.842 349.579,496.175 351,477.5C 352.256,475.246 353.423,472.912 354.5,470.5C 354.957,469.702 355.624,469.369 356.5,469.5C 354.646,474.598 353.479,479.931 353,485.5C 351.939,498.521 351.272,511.521 351,524.5C 372.749,473.043 411.249,451.376 466.5,459.5 Z"/></g>
<g><path style="opacity:0.212" fill="#a4dedd" d="M 328.5,469.5 C 330.335,470.122 331.502,471.456 332,473.5C 336.309,483.567 339.142,494.067 340.5,505C 340.613,506.699 339.947,507.866 338.5,508.5C 338.125,501.373 336.958,494.373 335,487.5C 333.601,486.773 332.101,486.273 330.5,486C 331.328,485.085 332.328,484.419 333.5,484C 331.535,479.272 329.868,474.439 328.5,469.5 Z"/></g>
<g><path style="opacity:0.004" fill="#00fffe" d="M 321.5,511.5 C 322.833,512.167 322.833,512.167 321.5,511.5 Z"/></g>
<g><path style="opacity:0.933" fill="#106c73" d="M 64.5,536.5 C 79.3631,534.272 90.8631,539.272 99,551.5C 100.759,554.608 101.592,557.941 101.5,561.5C 98.1667,562.167 94.8333,562.833 91.5,563.5C 89.6529,552.234 82.9863,546.567 71.5,546.5C 61.4354,546.406 55.4354,551.24 53.5,561C 53.7439,564.487 55.0772,567.487 57.5,570C 68.2518,574.105 79.2518,577.439 90.5,580C 107.407,587.895 111.24,600.062 102,616.5C 92.1761,626.438 80.3428,629.938 66.5,627C 53.0398,624.208 43.8732,616.374 39,603.5C 38.2419,601.231 38.4086,599.064 39.5,597C 42.5131,596.498 45.5131,595.998 48.5,595.5C 50.6939,609.689 59.0272,617.356 73.5,618.5C 81.7415,618.483 88.5748,615.483 94,609.5C 98.2187,598.452 94.3853,591.619 82.5,589C 73.362,587.173 64.362,584.839 55.5,582C 41.7948,573.345 38.9614,561.845 47,547.5C 51.7449,541.887 57.5782,538.221 64.5,536.5 Z"/></g>
<g><path style="opacity:0.964" fill="#106d74" d="M 336.5,536.5 C 342.863,536.407 349.196,536.74 355.5,537.5C 356.167,537.5 356.833,537.5 357.5,537.5C 375.75,542.251 386.584,553.918 390,572.5C 393.234,591.469 387.734,607.302 373.5,620C 355.006,629.598 336.339,629.931 317.5,621C 304.781,611.226 298.447,598.226 298.5,582C 299.392,556.945 312.059,541.779 336.5,536.5 Z"/></g>
<g><path style="opacity:0.943" fill="#106c73" d="M 171.5,539.5 C 187.224,539.063 202.891,539.563 218.5,541C 234.221,546.941 240.055,558.107 236,574.5C 231.261,584.295 223.428,589.795 212.5,591C 202.172,591.5 191.839,591.666 181.5,591.5C 181.5,602.5 181.5,613.5 181.5,624.5C 178.167,624.5 174.833,624.5 171.5,624.5C 171.5,596.167 171.5,567.833 171.5,539.5 Z M 181.5,549.5 C 192.91,549.067 204.244,549.567 215.5,551C 226.851,556.388 229.351,564.555 223,575.5C 220.749,577.377 218.249,578.877 215.5,580C 204.23,581.409 192.896,581.909 181.5,581.5C 181.5,570.833 181.5,560.167 181.5,549.5 Z"/></g>
<g><path style="opacity:0.946" fill="#106c73" d="M 456.5,539.5 C 473.556,539.058 490.556,539.558 507.5,541C 524.199,547.235 529.365,558.735 523,575.5C 518.238,582.297 511.738,586.13 503.5,587C 507.039,588.907 509.539,591.74 511,595.5C 513.002,602.178 515.002,608.845 517,615.5C 521.611,618.571 525.278,617.571 528,612.5C 530.613,614.401 532.28,616.735 533,619.5C 526.306,627.747 518.472,629.247 509.5,624C 505.551,615.488 502.384,606.654 500,597.5C 498.75,594.829 496.917,592.663 494.5,591C 485.608,589.557 476.608,589.057 467.5,589.5C 467.5,601.167 467.5,612.833 467.5,624.5C 463.833,624.5 460.167,624.5 456.5,624.5C 456.5,596.167 456.5,567.833 456.5,539.5 Z M 467.5,549.5 C 478.838,549.333 490.172,549.5 501.5,550C 513.813,553.457 517.313,560.957 512,572.5C 509.9,575.467 507.066,577.3 503.5,578C 491.562,579.415 479.562,579.915 467.5,579.5C 467.5,569.5 467.5,559.5 467.5,549.5 Z"/></g>
<g><path style="opacity:0.926" fill="#106c73" d="M 595.5,539.5 C 615.167,539.5 634.833,539.5 654.5,539.5C 654.5,542.833 654.5,546.167 654.5,549.5C 638.5,549.5 622.5,549.5 606.5,549.5C 606.5,558.5 606.5,567.5 606.5,576.5C 620.833,576.5 635.167,576.5 649.5,576.5C 649.5,579.5 649.5,582.5 649.5,585.5C 635.167,585.5 620.833,585.5 606.5,585.5C 606.5,595.5 606.5,605.5 606.5,615.5C 622.833,615.5 639.167,615.5 655.5,615.5C 655.5,618.5 655.5,621.5 655.5,624.5C 635.5,624.5 615.5,624.5 595.5,624.5C 595.5,596.167 595.5,567.833 595.5,539.5 Z"/></g>
<g><path style="opacity:0.992" fill="#1fa7ab" d="M 374.5,561.5 C 372.708,562.309 370.708,562.809 368.5,563C 367.253,564.458 367.253,565.958 368.5,567.5C 367.092,568.243 365.759,569.077 364.5,570C 362.208,568.899 360.708,569.732 360,572.5C 359.667,572.167 359.333,571.833 359,571.5C 356.267,573.891 353.6,573.891 351,571.5C 348.601,572.783 345.934,573.449 343,573.5C 341.105,572.311 339.105,571.311 337,570.5C 336.311,571.357 335.478,572.023 334.5,572.5C 331.855,572.158 329.355,570.825 327,568.5C 321.634,570.1 317.134,568.767 313.5,564.5C 317.156,555.351 323.822,549.518 333.5,547C 345.18,544.224 356.18,545.891 366.5,552C 369.754,554.747 372.42,557.914 374.5,561.5 Z"/></g>
<g><path style="opacity:0.993" fill="#1f9aa1" d="M 374.5,561.5 C 377.734,565.531 379.401,570.198 379.5,575.5C 379.657,576.873 379.49,578.207 379,579.5C 378.259,580.641 377.425,580.641 376.5,579.5C 375.614,580.325 375.281,581.325 375.5,582.5C 376.5,582.5 377.5,582.5 378.5,582.5C 378.5,583.5 378.5,584.5 378.5,585.5C 376.226,585.285 374.059,584.618 372,583.5C 368.628,585.829 364.628,587.496 360,588.5C 358.475,588.112 356.808,588.112 355,588.5C 354.641,585.456 353.974,585.122 353,587.5C 352.667,587.167 352.333,586.833 352,586.5C 349.264,587.727 346.431,588.727 343.5,589.5C 342.397,587.896 340.897,586.896 339,586.5C 334.637,587.197 330.304,587.531 326,587.5C 322.912,586.921 320.245,585.587 318,583.5C 316.192,584.69 314.359,584.69 312.5,583.5C 311.261,583.942 310.261,584.609 309.5,585.5C 309.334,581.486 309.501,577.486 310,573.5C 310.119,569.995 311.286,566.995 313.5,564.5C 317.134,568.767 321.634,570.1 327,568.5C 329.355,570.825 331.855,572.158 334.5,572.5C 335.478,572.023 336.311,571.357 337,570.5C 339.105,571.311 341.105,572.311 343,573.5C 345.934,573.449 348.601,572.783 351,571.5C 353.6,573.891 356.267,573.891 359,571.5C 359.333,571.833 359.667,572.167 360,572.5C 360.708,569.732 362.208,568.899 364.5,570C 365.759,569.077 367.092,568.243 368.5,567.5C 367.253,565.958 367.253,564.458 368.5,563C 370.708,562.809 372.708,562.309 374.5,561.5 Z"/></g>
<g><path style="opacity:0.992" fill="#1d8c94" d="M 379.5,575.5 C 383.059,594.879 375.726,608.379 357.5,616C 338.684,620.769 323.851,615.269 313,599.5C 311.26,594.965 310.094,590.298 309.5,585.5C 310.261,584.609 311.261,583.942 312.5,583.5C 314.359,584.69 316.192,584.69 318,583.5C 320.245,585.587 322.912,586.921 326,587.5C 330.304,587.531 334.637,587.197 339,586.5C 340.897,586.896 342.397,587.896 343.5,589.5C 346.431,588.727 349.264,587.727 352,586.5C 352.333,586.833 352.667,587.167 353,587.5C 353.974,585.122 354.641,585.456 355,588.5C 356.808,588.112 358.475,588.112 360,588.5C 364.628,587.496 368.628,585.829 372,583.5C 374.059,584.618 376.226,585.285 378.5,585.5C 378.5,584.5 378.5,583.5 378.5,582.5C 377.5,582.5 376.5,582.5 375.5,582.5C 375.281,581.325 375.614,580.325 376.5,579.5C 377.425,580.641 378.259,580.641 379,579.5C 379.49,578.207 379.657,576.873 379.5,575.5 Z"/></g>
</svg>
